<svg width="25" height="25" viewBox="0 0 25 25" fill="none" xmlns="http://www.w3.org/2000/svg">
<path d="M10.7563 17.2796C10.625 17.2798 10.495 17.2542 10.3736 17.2041C10.2523 17.154 10.1421 17.0804 10.0493 16.9876L5.80725 12.7446C5.71168 12.6524 5.63542 12.5421 5.58293 12.4201C5.53043 12.2982 5.50276 12.167 5.50151 12.0342C5.50026 11.9014 5.52547 11.7697 5.57567 11.6468C5.62586 11.5238 5.70003 11.4121 5.79386 11.3182C5.88768 11.2242 5.99928 11.1499 6.12214 11.0995C6.245 11.0492 6.37666 11.0238 6.50944 11.0248C6.64222 11.0259 6.77346 11.0534 6.8955 11.1057C7.01754 11.158 7.12794 11.2341 7.22025 11.3296L10.7553 14.8646L17.1203 8.50156C17.3078 8.31392 17.5621 8.20845 17.8274 8.20836C18.0927 8.20827 18.3471 8.31355 18.5348 8.50106C18.7224 8.68857 18.8279 8.94294 18.828 9.20821C18.828 9.47348 18.7228 9.72792 18.5353 9.91556L11.4633 16.9876C11.3704 17.0804 11.2602 17.154 11.1389 17.2041C11.0175 17.2542 10.8875 17.2798 10.7563 17.2796Z" fill="#2FAB73"/>
</svg>
